<!DOCTYPE svg PUBLIC "-//W3C//DTD SVG 1.1//EN" "http://www.w3.org/Graphics/SVG/1.1/DTD/svg11.dtd">
<!-- Uploaded to: SVG Repo, www.svgrepo.com, Transformed by: SVG Repo Mixer Tools -->
<svg version="1.1" id="Uploaded to svgrepo.com" xmlns="http://www.w3.org/2000/svg" xmlns:xlink="http://www.w3.org/1999/xlink" width="800px" height="800px" viewBox="0 0 32 32" xml:space="preserve" fill="#000000">
<g id="SVGRepo_bgCarrier" stroke-width="0"/>
<g id="SVGRepo_tracerCarrier" stroke-linecap="round" stroke-linejoin="round"/>
<g id="SVGRepo_iconCarrier"> <style type="text/css"> .duotone_twee{fill:#555D5E;} .duotone_een{fill:#0B1719;} .st0{fill:none;} </style> <g> <path class="duotone_een" d="M17.837,22.471l2.116-2.268c0.215-0.23,0.587-0.207,0.772,0.05l4.693,6.539 c0.161,0.225,0.474,0.275,0.698,0.115l0.676-0.485c0.224-0.161,0.276-0.473,0.115-0.698l-4.693-6.539 c-0.184-0.256-0.087-0.617,0.2-0.747l2.889-1.308c0.355-0.161,0.398-0.648,0.076-0.868l-10.301-7.04 c-0.373-0.255-0.866,0.076-0.771,0.518l2.677,12.496C17.067,22.628,17.561,22.767,17.837,22.471z"/> <path class="duotone_twee" d="M4,11.5v-6C4,5.224,4.224,5,4.5,5h6C10.776,5,11,5.224,11,5.5v6c0,0.276-0.224,0.5-0.5,0.5h-6 C4.224,12,4,11.776,4,11.5z M13.328,9.948c-0.095-0.446,0.013-0.903,0.297-1.255c0.288-0.357,0.715-0.561,1.171-0.561 c0.301,0,0.593,0.091,0.845,0.263L19,10.691V5.5C19,5.224,18.776,5,18.5,5h-6C12.224,5,12,5.224,12,5.5v6 c0,0.276,0.224,0.5,0.5,0.5h1.267L13.328,9.948z M20.915,12H26.5c0.276,0,0.5-0.224,0.5-0.5v-6C27,5.224,26.776,5,26.5,5h-6 C20.224,5,20,5.224,20,5.5v5.875L20.915,12z"/> </g> </g>
</svg>